<?xml version="1.0" standalone="no"?>
<!DOCTYPE svg PUBLIC "-//W3C//DTD SVG 20010904//EN"
 "http://www.w3.org/TR/2001/REC-SVG-20010904/DTD/svg10.dtd">
<svg version="1.0" xmlns="http://www.w3.org/2000/svg"
 width="1218.000000pt" height="1218.000000pt" viewBox="0 0 1218.000000 1218.000000"
 preserveAspectRatio="xMidYMid meet">

<g transform="translate(0.000000,1218.000000) scale(0.100000,-0.100000)"
fill="#000000" stroke="none">
<path d="M10 6080 l0 -6080 6075 0 6075 0 0 6080 0 6080 -6075 0 -6075 0 0
-6080z m5139 4534 c221 -451 288 -579 333 -636 l30 -38 -135 0 -134 0 -6 45
c-8 56 -47 173 -83 249 l-26 56 -212 0 -212 0 -31 -82 c-38 -97 -63 -193 -63
-237 l0 -31 -140 0 -140 0 50 62 c50 61 110 179 425 826 110 224 120 241 131
220 7 -13 102 -208 213 -434z m2594 431 l47 -17 0 -89 c0 -49 -4 -89 -8 -89
-5 0 -16 8 -25 18 -59 65 -207 89 -278 45 -52 -32 -73 -78 -67 -142 6 -66 37
-99 168 -186 181 -120 240 -196 248 -321 11 -165 -87 -288 -259 -328 -79 -19
-225 -9 -301 20 l-48 18 0 100 0 100 38 -36 c54 -53 114 -78 192 -78 108 0
183 50 196 132 16 96 -25 154 -179 256 -181 119 -236 192 -237 311 0 94 17
138 75 197 58 58 98 82 170 101 64 16 205 10 268 -12z m-1725 -9 c144 -39 227
-121 239 -238 10 -101 -30 -179 -126 -239 l-43 -28 33 -14 c62 -26 135 -93
163 -148 51 -103 30 -235 -50 -309 -60 -55 -130 -86 -238 -105 -91 -15 -366
-21 -366 -7 0 4 8 41 17 82 25 112 25 832 0 933 -9 38 -17 72 -17 78 0 15 327
11 388 -5z m1002 9 c0 -3 -18 -42 -41 -86 -26 -53 -45 -79 -53 -76 -74 29
-156 46 -232 48 l-89 3 -3 -182 -2 -182 191 0 191 0 -24 -42 c-14 -24 -35 -61
-47 -83 -13 -22 -25 -43 -28 -47 -2 -5 -21 1 -41 11 -47 24 -129 41 -192 41
l-50 0 0 -196 0 -197 102 7 c128 9 223 27 313 60 38 14 71 23 73 22 2 -2 -6
-24 -16 -48 -11 -23 -32 -69 -46 -100 l-25 -58 -300 0 c-234 0 -301 3 -301 13
0 6 7 47 15 90 18 95 22 783 4 882 -5 33 -13 75 -16 93 l-6 32 312 0 c171 0
311 -2 311 -5z m-692 -1551 c53 -5 75 -11 81 -23 4 -9 6 -69 3 -133 l-5 -118
-154 0 -154 0 6 48 c9 63 40 89 67 56 37 -44 50 -54 77 -54 23 0 31 6 40 31 6
17 8 50 5 74 l-6 43 -82 6 c-44 3 -108 7 -141 8 l-60 2 -3 -142 -3 -142 123 0
c107 0 172 -7 329 -36 35 -6 37 -5 61 42 14 27 40 74 57 104 18 30 43 79 57
108 39 81 39 81 344 -85 85 -47 161 -91 168 -97 11 -11 2 -33 -48 -124 -34
-62 -66 -112 -71 -112 -20 0 -259 123 -259 134 0 6 9 26 20 44 31 51 90 40 90
-17 0 -29 26 -61 50 -61 28 0 80 74 80 115 0 11 -50 41 -232 141 -6 4 -74
-109 -121 -203 l-26 -51 45 -22 c70 -32 191 -115 265 -181 70 -62 83 -67 114
-46 11 8 61 35 110 62 50 26 105 56 123 67 62 37 84 18 169 -142 61 -114 91
-169 128 -233 15 -26 25 -54 22 -61 -7 -18 -225 -129 -237 -121 -9 6 -46 66
-116 188 l-33 57 41 21 c33 17 46 19 64 10 24 -11 32 -45 14 -56 -16 -10 -12
-71 5 -85 20 -16 77 0 118 33 l28 23 -33 60 c-18 33 -46 85 -63 117 -16 31
-34 57 -40 57 -5 0 -39 -16 -75 -35 -36 -19 -89 -47 -117 -62 -29 -15 -53 -31
-53 -36 0 -5 13 -27 29 -50 42 -62 105 -194 125 -262 10 -33 19 -65 21 -71 2
-8 57 -10 191 -6 173 5 188 4 201 -13 10 -15 13 -75 13 -266 0 -216 -2 -248
-16 -253 -9 -3 -71 -6 -138 -6 l-123 0 -6 83 c-7 82 -9 207 -4 207 71 11 80
11 98 -6 26 -24 24 -48 -7 -65 -28 -15 -47 -50 -38 -73 8 -22 56 -34 107 -29
l47 6 0 71 c0 39 3 101 7 139 l6 68 -152 -3 -153 -3 -3 -125 c-1 -84 -10 -158
-24 -223 -21 -91 -21 -100 -6 -111 9 -6 81 -47 161 -90 80 -43 148 -85 151
-93 8 -21 -31 -94 -142 -263 -53 -80 -98 -153 -101 -162 -12 -35 -41 -28 -152
34 -61 35 -112 66 -112 70 0 7 109 193 138 236 15 22 92 -21 92 -51 0 -32 -18
-47 -55 -47 -44 0 -72 -32 -57 -65 10 -23 81 -65 108 -65 14 0 146 196 148
219 1 9 -47 42 -119 83 -66 37 -123 68 -127 68 -3 0 -25 -33 -47 -74 -43 -78
-110 -166 -194 -253 -33 -34 -47 -55 -42 -65 7 -10 91 -128 193 -269 30 -41
14 -55 -271 -235 -43 -27 -95 -59 -114 -72 -25 -16 -42 -21 -54 -15 -22 10
-152 201 -145 212 3 5 58 44 123 86 l116 78 24 -29 c42 -52 13 -113 -40 -85
-18 9 -33 11 -54 4 -42 -14 -44 -60 -3 -107 18 -20 37 -36 44 -36 8 0 218 121
234 136 4 2 -32 55 -131 194 -23 33 -45 60 -49 60 -4 0 -45 -21 -90 -46 -64
-35 -238 -101 -313 -119 -7 -2 -7 -65 -2 -186 6 -159 5 -185 -8 -199 -13 -12
-58 -16 -266 -20 -138 -3 -257 -1 -265 3 -11 6 -14 36 -14 137 l0 130 43 0
c24 0 92 3 150 7 l107 6 0 -43 c0 -40 -20 -80 -41 -80 -5 0 -24 16 -43 35 -39
38 -53 42 -82 21 -15 -12 -19 -25 -17 -71 2 -31 5 -61 9 -66 3 -5 68 -9 145
-9 l139 0 0 73 c0 39 -3 108 -6 153 l-7 81 -151 6 c-83 3 -180 13 -215 22 -76
18 -72 21 -126 -80 -21 -38 -58 -105 -82 -149 -23 -43 -43 -82 -43 -87 0 -22
-52 -20 -102 4 -115 54 -393 215 -396 229 -2 11 104 207 123 226 5 5 265 -128
265 -136 0 -4 -9 -22 -20 -39 -16 -27 -26 -33 -55 -33 -33 0 -35 2 -35 34 0
25 -7 40 -26 55 -28 22 -46 18 -75 -16 -13 -14 -39 -74 -39 -89 0 -4 232 -134
241 -134 4 0 26 35 49 78 24 42 58 105 77 139 l34 62 -63 32 c-93 46 -188 110
-252 168 -34 31 -62 49 -69 44 -71 -42 -256 -159 -268 -169 -25 -22 -63 -17
-91 14 -14 15 -47 63 -74 107 -27 44 -79 126 -116 182 -37 56 -65 108 -62 116
2 7 33 30 67 51 34 20 84 51 111 67 27 16 49 29 50 27 24 -36 98 -145 123
-180 18 -26 33 -52 33 -57 0 -5 -16 -19 -36 -31 -29 -19 -40 -21 -60 -11 -27
12 -30 28 -12 66 17 37 -3 75 -40 75 -24 0 -112 -52 -112 -67 0 -7 122 -206
136 -222 10 -12 29 -3 116 52 57 37 113 74 125 83 l22 16 -45 63 c-50 71 -117
207 -136 278 l-12 47 -207 0 c-180 0 -208 2 -220 17 -24 29 -11 507 14 515 7
2 69 2 140 0 l127 -4 0 -144 0 -144 -48 0 c-42 0 -50 3 -63 26 -12 24 -12 28
11 45 47 36 50 40 50 64 0 14 -8 29 -19 35 -22 11 -111 13 -127 2 -7 -4 -13
-60 -17 -139 l-6 -133 163 0 163 0 1 143 c0 92 5 168 16 217 20 93 20 96 -1
103 -10 3 -88 46 -173 94 -190 108 -187 101 -99 240 182 288 201 315 223 309
12 -3 67 -33 123 -66 l101 -61 -64 -111 c-86 -149 -78 -141 -124 -118 -61 31
-59 90 3 90 62 1 89 53 48 90 -20 17 -98 47 -104 39 -11 -12 -147 -220 -147
-223 0 -5 269 -156 279 -156 4 0 17 19 27 42 30 67 111 187 176 260 l60 68
-87 137 c-47 76 -91 145 -97 154 -17 25 -1 65 34 87 18 11 117 66 221 121 127
69 192 99 202 94 14 -8 135 -200 135 -214 0 -4 -21 -20 -47 -36 -53 -33 -194
-116 -205 -121 -4 -2 -16 15 -28 38 -20 39 -20 43 -5 66 18 28 16 28 57 8 46
-22 88 -6 88 34 0 27 -56 116 -69 110 -68 -32 -241 -125 -241 -130 0 -3 20
-39 45 -80 24 -40 58 -96 75 -125 l31 -52 90 55 c84 51 206 105 305 134 l41
12 7 121 c3 66 6 148 6 183 0 49 4 65 18 74 17 11 287 7 450 -6z m244 -4235
c25 -13 64 -69 77 -110 20 -63 16 -183 -9 -234 -61 -125 -197 -139 -275 -27
-27 40 -30 52 -33 136 -3 78 0 101 18 144 12 28 30 58 40 67 45 40 130 52 182
24z m-1532 5 c0 -3 -7 -22 -17 -41 -13 -28 -20 -33 -37 -28 -12 3 -40 9 -63
12 l-43 6 0 -67 0 -66 70 0 c76 0 79 -3 54 -51 -13 -26 -20 -30 -41 -24 -14 3
-38 9 -54 12 l-29 6 0 -72 0 -71 42 0 c23 0 65 7 93 16 51 16 53 16 82 -6 36
-26 76 -24 81 4 3 13 -11 33 -41 61 -48 43 -63 78 -53 120 12 46 97 79 150 59
10 -4 16 -18 16 -39 l0 -33 -29 14 c-32 16 -56 11 -66 -14 -5 -12 7 -29 38
-57 77 -69 85 -109 33 -161 -35 -35 -60 -41 -125 -28 -29 6 -31 10 -31 48 l0
41 -20 -42 -19 -43 -118 0 -118 0 0 225 0 225 123 0 c67 0 122 -3 122 -6z
m1183 -14 c31 -25 51 -80 42 -120 -4 -16 -38 -73 -77 -127 -38 -53 -72 -103
-75 -110 -6 -15 43 -17 120 -4 46 8 48 7 43 -13 -3 -12 -6 -29 -6 -38 0 -16
-14 -18 -150 -18 -82 0 -150 3 -150 7 0 4 17 27 38 52 80 97 173 232 179 261
4 23 1 34 -13 45 -44 33 -94 2 -94 -58 l0 -28 -30 18 c-24 14 -30 24 -30 53 1
62 49 100 126 100 36 0 59 -6 77 -20z m717 -2 c53 -36 74 -89 79 -191 4 -106
-13 -161 -64 -206 -65 -57 -157 -51 -214 14 -38 44 -51 90 -51 185 0 93 31
169 82 200 47 28 125 27 168 -2z m378 -17 c48 -49 62 -96 62 -197 -1 -124 -50
-204 -137 -220 -126 -24 -223 122 -192 290 21 114 74 166 172 166 53 0 59 -2
95 -39z m-1569 -18 c-11 -65 -11 -309 0 -355 l9 -38 -44 0 c-24 0 -44 5 -44
11 0 5 -10 3 -22 -5 -31 -22 -69 -20 -109 7 -42 28 -59 60 -59 112 0 111 69
195 162 195 l31 0 -6 54 c-6 60 -4 61 64 65 25 1 26 0 18 -46z m-331 -81 c26
-3 32 -7 32 -28 0 -21 -5 -24 -35 -24 l-35 0 0 -87 c0 -49 4 -94 9 -102 6 -9
21 -12 45 -9 20 2 36 3 36 2 0 0 -5 -15 -11 -32 -8 -25 -18 -33 -45 -38 -43
-8 -90 11 -98 39 -3 12 -6 68 -6 125 0 95 -1 102 -20 102 -30 0 -25 9 33 68
l52 53 5 -33 c4 -29 9 -33 38 -36z m482 -232 c11 -11 20 -27 20 -35 0 -20 -36
-55 -57 -55 -23 0 -53 29 -53 51 0 21 37 59 57 59 7 0 22 -9 33 -20z m-2461
-1072 c21 -46 101 -216 176 -378 76 -162 166 -355 201 -429 35 -73 64 -135 64
-137 0 -1 34 -73 75 -159 41 -87 75 -158 75 -160 0 -1 26 -58 59 -126 32 -68
107 -227 166 -354 169 -361 286 -576 374 -689 25 -32 54 -69 64 -82 l19 -24
-316 0 -316 0 0 65 c0 130 -47 298 -161 573 l-63 152 -479 -2 -478 -3 -30 -75
c-102 -260 -160 -484 -163 -627 l-1 -83 -317 0 c-175 0 -318 2 -318 4 0 2 21
28 46 58 119 138 266 403 477 858 58 124 124 266 147 315 23 50 74 158 112
240 39 83 86 184 106 225 19 41 120 257 224 480 205 437 206 440 213 440 3 0
22 -37 44 -82z m6271 67 c81 -6 196 -37 261 -70 l49 -25 0 -215 c0 -118 -2
-215 -5 -215 -3 0 -34 24 -68 53 -131 110 -230 154 -371 164 -181 13 -322 -65
-387 -211 -30 -69 -30 -182 1 -256 45 -106 115 -173 355 -335 174 -118 235
-166 328 -254 152 -145 225 -297 235 -488 12 -238 -54 -412 -215 -570 -70 -69
-101 -91 -186 -133 -152 -74 -207 -85 -427 -84 -157 0 -199 4 -276 23 -102 25
-270 85 -266 94 1 4 2 112 2 240 l0 232 58 -61 c106 -112 219 -181 331 -205
88 -18 256 -7 321 21 197 85 291 269 234 460 -40 134 -125 219 -419 418 -187
126 -278 202 -355 295 -102 122 -145 229 -156 387 -26 386 271 697 706 740 73
7 115 6 250 -5z m-3946 -50 c184 -34 327 -101 435 -203 119 -114 176 -235 187
-401 8 -108 -6 -185 -51 -278 -43 -91 -142 -192 -249 -254 -71 -41 -90 -59
-65 -59 23 0 127 -54 196 -102 134 -93 218 -207 264 -358 29 -97 32 -263 6
-360 -62 -231 -241 -390 -532 -475 -174 -50 -245 -57 -627 -62 -197 -3 -358
-2 -358 2 0 4 9 41 20 83 56 221 55 202 55 1197 0 996 1 966 -56 1189 -11 44
-17 86 -14 94 8 22 659 11 789 -13z m2564 17 c9 -7 5 -25 -19 -78 -82 -181
-159 -334 -168 -334 -5 0 -39 13 -75 30 -156 70 -314 100 -523 100 l-133 0 0
-417 0 -418 420 3 c280 2 420 -1 420 -8 0 -5 -13 -31 -28 -57 -16 -27 -66
-114 -111 -196 -46 -81 -86 -149 -90 -152 -4 -2 -39 11 -77 29 -133 65 -275
95 -446 96 l-88 0 0 -445 0 -445 113 6 c392 19 660 74 894 184 47 22 87 40 88
40 3 0 -56 -145 -166 -407 l-43 -103 -683 0 c-376 0 -683 2 -683 4 0 2 11 51
24 108 36 154 46 239 56 498 11 262 10 1102 0 1395 -8 212 -19 302 -57 454
-21 86 -23 105 -12 112 18 11 1369 12 1387 1z m-665 -2781 l37 -12 0 -63 0
-63 -55 28 c-150 75 -304 30 -372 -109 -24 -50 -28 -68 -28 -147 0 -102 24
-166 80 -218 59 -55 101 -70 185 -65 65 4 87 10 144 41 l66 37 0 -40 c0 -62
-14 -85 -62 -105 -106 -42 -252 -38 -347 9 -66 34 -129 101 -164 174 -28 60
-29 68 -25 170 4 92 8 115 33 166 49 100 135 171 245 203 52 15 205 11 263 -6z
m-5183 -2 c0 -17 -42 -109 -50 -109 -4 0 -23 6 -42 14 -18 8 -64 17 -101 19
l-67 6 0 -120 0 -119 120 0 c66 0 120 -3 120 -6 0 -13 -62 -114 -70 -114 -4 0
-24 7 -43 15 -20 8 -57 15 -82 15 l-45 0 0 -126 0 -127 85 7 c46 4 116 18 155
31 38 13 70 22 70 20 0 -3 -12 -34 -26 -69 l-26 -65 -182 -3 c-223 -4 -218 -4
-209 30 11 36 10 627 0 675 l-8 37 201 0 c135 0 200 -3 200 -11z m1183 -8 c13
-5 29 -23 36 -39 23 -55 -10 -112 -65 -112 -64 0 -91 93 -40 137 30 26 35 27
69 14z m2060 -18 c21 -20 23 -81 1 -111 -15 -22 -66 -30 -90 -14 -22 15 -36
54 -30 88 12 60 72 79 119 37z m2730 -20 c-10 -58 -11 -558 -1 -630 l7 -51
-61 -4 c-33 -1 -64 -1 -68 2 -5 3 -4 26 1 52 11 51 6 587 -5 629 -7 25 -5 27
41 37 94 19 95 19 86 -35z m230 0 c-9 -54 -8 -587 1 -648 l6 -40 -69 0 -69 0
6 30 c10 42 9 613 -1 651 -8 30 -7 31 40 41 94 20 95 20 86 -34z m-5323 -178
c23 -8 61 -11 108 -8 78 5 81 3 66 -54 -5 -19 -13 -23 -43 -23 l-36 0 0 -73
c0 -66 -3 -78 -29 -111 -34 -45 -79 -66 -140 -66 -28 0 -51 -6 -61 -16 -30
-30 0 -44 105 -47 117 -3 150 -18 168 -71 40 -122 -77 -215 -257 -204 -151 9
-187 63 -97 148 37 35 38 50 5 50 -20 0 -59 33 -59 51 0 12 43 57 79 81 l24
17 -32 27 c-43 36 -61 74 -61 129 0 90 56 166 135 183 44 10 71 7 125 -13z
m2201 0 c0 -5 -2 -31 -5 -58 -6 -43 -9 -46 -26 -37 -26 14 -86 13 -128 -2
l-35 -13 6 -175 c3 -96 9 -185 12 -197 7 -20 3 -21 -60 -25 -37 -1 -68 -2 -70
0 -1 1 2 23 7 49 11 49 5 404 -7 441 -7 21 -5 22 54 22 l61 0 0 -42 1 -43 41
44 c43 45 84 62 125 52 13 -3 23 -10 24 -16z m3937 4 c13 -5 59 -9 103 -9 l79
0 0 -40 0 -40 -41 0 -41 0 7 -50 c6 -41 2 -59 -18 -103 -20 -44 -33 -58 -69
-76 -25 -12 -64 -21 -90 -21 -48 0 -75 -18 -64 -45 4 -12 23 -15 83 -15 149
-1 193 -24 200 -107 5 -62 -18 -101 -84 -140 -44 -26 -56 -28 -153 -28 -87 0
-111 3 -137 20 -47 28 -44 63 8 120 l41 44 -29 7 c-39 9 -53 23 -53 51 0 23
11 36 70 82 l25 20 -36 33 c-83 77 -73 210 23 281 45 34 111 40 176 16z
m-6569 -4 c55 -28 65 -68 71 -295 3 -113 5 -206 5 -207 0 -3 -33 -5 -75 -4
l-45 1 4 188 c3 171 1 189 -15 210 -24 28 -86 32 -132 8 l-32 -17 0 -157 c0
-86 4 -173 10 -191 5 -19 9 -36 7 -37 -1 -1 -31 -4 -67 -6 l-65 -5 0 259 0
258 58 0 57 0 0 -41 0 -40 42 45 c39 44 44 46 95 46 30 0 67 -7 82 -15z m1234
-13 c38 -36 47 -86 47 -263 0 -90 4 -178 9 -196 l9 -31 -69 -4 -69 -3 8 55 c4
30 7 116 7 191 0 118 -2 140 -18 157 -25 27 -62 32 -112 15 l-42 -14 -7 -102
c-3 -56 -2 -145 3 -197 5 -52 7 -97 6 -100 -2 -3 -32 -4 -68 -2 l-64 4 9 44
c11 50 5 406 -7 442 -7 21 -5 22 60 22 l67 0 -7 -42 -6 -43 45 49 46 48 65 -4
c49 -3 70 -9 88 -26z m439 12 c18 -9 40 -26 50 -38 25 -30 48 -111 48 -173 l0
-53 -140 0 c-134 0 -140 -1 -140 -20 0 -32 36 -95 72 -125 30 -25 37 -27 100
-23 37 3 75 12 85 19 14 12 16 12 11 -1 -3 -8 -11 -32 -19 -52 -15 -45 -32
-52 -119 -51 -97 0 -175 46 -217 126 -21 40 -29 177 -14 234 16 59 70 135 111
155 44 23 131 23 172 2z m479 -8 c20 -14 44 -40 53 -60 18 -38 36 -122 36
-167 l0 -29 -145 0 -145 0 6 -27 c11 -45 34 -89 59 -113 31 -30 113 -38 171
-18 l41 15 -17 -45 c-21 -56 -38 -65 -119 -65 -113 0 -194 52 -231 149 -49
133 -1 301 105 365 46 29 140 26 186 -5z m1099 9 c48 -25 63 -67 67 -185 1
-58 4 -154 6 -215 l3 -110 -55 2 c-31 1 -62 2 -68 2 -9 1 -10 8 -3 27 6 14 10
99 10 188 0 145 -2 165 -19 184 -22 27 -87 30 -132 6 l-30 -15 4 -177 c2 -97
7 -186 11 -197 7 -20 -7 -22 -119 -16 -6 1 -10 93 -10 256 l0 255 58 0 57 0 0
-41 0 -42 41 47 c39 44 43 46 95 46 30 0 68 -7 84 -15z m437 0 c28 -12 54 -14
105 -9 62 6 68 5 68 -12 0 -50 -11 -64 -49 -64 l-36 0 0 -74 c0 -60 -4 -80
-21 -103 -38 -51 -81 -73 -145 -73 -49 0 -59 -3 -64 -20 -10 -31 2 -40 53 -40
100 -1 186 -18 204 -40 51 -62 23 -157 -61 -207 -43 -26 -54 -28 -151 -28 -81
0 -113 4 -137 18 -50 27 -48 65 5 119 19 21 34 39 31 42 -2 2 -18 11 -35 19
-59 30 -47 73 35 129 l23 17 -35 31 c-88 77 -71 229 33 289 43 25 125 28 177
6z m1521 -17 c22 -15 54 -49 69 -75 26 -44 28 -56 28 -148 0 -110 -11 -142
-69 -203 -48 -51 -99 -74 -168 -73 -76 0 -94 6 -145 47 -104 85 -121 269 -35
384 57 76 108 101 203 98 63 -3 82 -8 117 -30z m943 8 c44 -30 67 -77 81 -161
16 -98 21 -95 -143 -95 l-141 0 7 -27 c11 -46 35 -89 61 -114 22 -21 36 -24
98 -24 47 0 79 5 89 14 22 17 22 3 1 -48 -18 -47 -36 -54 -119 -54 -108 1
-189 55 -225 149 -50 134 4 313 110 366 53 27 137 24 181 -6z m935 -4 c18 -12
39 -38 49 -58 18 -38 39 -170 29 -185 -3 -5 -68 -9 -146 -9 l-140 0 7 -27 c28
-118 110 -166 224 -133 19 5 36 8 38 6 2 -2 -4 -22 -13 -44 -19 -48 -35 -56
-124 -55 -98 0 -169 44 -216 133 -14 27 -19 57 -19 125 0 130 38 207 129 263
34 20 145 11 182 -16z m-6312 1 c-12 -29 -17 -386 -6 -439 6 -27 10 -49 9 -50
-1 -1 -33 -4 -70 -6 l-68 -4 8 36 c10 45 11 358 0 428 l-8 52 72 0 c64 0 70
-2 63 -17z m2036 -9 c-13 -32 -13 -408 -1 -451 l9 -31 -70 -4 c-38 -2 -71 -1
-73 0 -2 2 1 16 7 32 11 34 6 436 -6 463 -7 15 -1 17 68 17 l76 0 -10 -26z"/>
<path d="M4842 10598 c-40 -90 -72 -166 -72 -170 0 -7 300 -10 300 -4 0 9
-142 322 -149 329 -4 4 -40 -66 -79 -155z"/>
<path d="M5840 10760 l0 -190 31 0 c96 0 179 63 199 152 24 107 -25 184 -135
212 -103 27 -95 43 -95 -174z"/>
<path d="M5840 10270 l0 -223 63 5 c65 6 147 40 179 75 44 48 60 136 36 204
-29 84 -116 145 -224 156 l-54 6 0 -223z"/>
<path d="M6066 8550 c-49 -45 -99 -132 -116 -202 l-12 -47 46 -53 c44 -50 113
-171 130 -228 l7 -25 11 25 c60 138 79 172 117 219 l44 55 -12 60 c-20 97 -78
193 -132 222 -15 8 -31 14 -34 14 -3 0 -25 -18 -49 -40z"/>
<path d="M5640 8418 c0 -6 10 -57 21 -112 l22 -102 65 -12 c132 -25 252 -106
321 -216 36 -58 39 -49 10 37 -66 198 -200 341 -373 400 -59 20 -66 21 -66 5z"/>
<path d="M6535 8416 c-158 -50 -303 -190 -361 -347 -19 -53 -43 -139 -39 -139
2 0 14 19 28 43 61 103 195 195 320 219 71 13 74 16 102 97 19 54 20 141 3
140 -7 0 -31 -6 -53 -13z"/>
<path d="M5420 8187 c0 -3 24 -34 53 -69 l52 -63 95 3 c164 5 288 -23 389 -88
l62 -40 -25 36 c-49 72 -108 124 -180 158 -90 43 -164 57 -296 54 -58 -2 -115
1 -127 5 -13 5 -23 6 -23 4z"/>
<path d="M6775 8179 c-16 -5 -73 -7 -125 -4 -112 8 -210 -9 -291 -50 -58 -30
-153 -120 -183 -175 l-20 -35 39 34 c83 72 235 113 412 110 l102 -1 33 37 c31
36 74 96 66 94 -1 0 -16 -5 -33 -10z"/>
<path d="M5287 7998 c14 -35 29 -67 33 -71 4 -4 51 0 106 9 196 31 450 16 587
-36 28 -11 53 -17 56 -15 9 10 -42 54 -97 83 -94 50 -186 63 -421 61 -175 -3
-212 0 -245 14 -21 9 -40 17 -42 17 -2 0 8 -28 23 -62z"/>
<path d="M6930 8044 c-19 -10 -73 -13 -225 -13 -199 0 -288 -8 -378 -35 -78
-23 -187 -96 -145 -96 9 0 51 9 94 19 88 22 251 41 353 41 57 0 149 -13 257
-35 31 -7 32 -6 52 46 11 30 23 62 27 72 8 20 0 20 -35 1z"/>
<path d="M5446 7924 c-80 -15 -238 -65 -291 -92 l-29 -15 29 -23 c36 -29 37
-29 104 -4 238 91 510 86 791 -16 l70 -25 47 20 c115 48 291 81 433 81 116 0
233 -21 352 -62 l87 -30 36 28 c34 25 35 29 20 40 -29 21 -178 72 -267 91 -59
13 -124 18 -228 17 -159 0 -242 -14 -393 -65 l-88 -30 -67 27 c-130 52 -197
65 -367 69 -115 3 -182 0 -239 -11z"/>
<path d="M6452 5193 c-48 -19 -66 -196 -27 -263 27 -44 73 -60 109 -36 50 32
71 191 35 258 -23 43 -71 60 -117 41z"/>
<path d="M6801 5181 c-26 -26 -44 -112 -37 -175 9 -68 36 -112 75 -121 67 -14
105 41 105 155 1 80 -15 135 -45 150 -29 16 -78 11 -98 -9z"/>
<path d="M7162 5180 c-29 -27 -37 -60 -36 -146 0 -112 53 -176 118 -146 42 19
60 67 60 157 0 79 -9 108 -40 139 -22 22 -76 20 -102 -4z"/>
<path d="M5581 5073 c-31 -25 -39 -108 -16 -156 18 -39 43 -52 81 -43 23 6 24
9 24 105 0 94 -1 99 -22 105 -35 9 -44 7 -67 -11z"/>
<path d="M3336 3092 c-21 -48 -74 -170 -118 -272 -44 -102 -100 -231 -125
-288 -25 -57 -43 -105 -41 -107 2 -3 150 -5 329 -5 284 -1 324 1 321 14 -1 9
-24 64 -51 123 -26 60 -96 222 -155 361 -60 138 -111 254 -115 256 -4 3 -24
-34 -45 -82z"/>
<path d="M5450 3179 l0 -432 78 6 c133 10 262 66 333 144 44 48 66 86 89 155
19 56 22 83 18 165 -3 84 -8 108 -32 158 -70 141 -236 235 -418 235 l-68 0 0
-431z"/>
<path d="M5450 2050 l0 -513 78 7 c225 20 374 89 484 224 91 112 104 335 29
487 -85 173 -269 281 -515 302 l-76 6 0 -513z"/>
<path d="M3220 773 c-32 -41 -24 -127 14 -160 33 -28 75 -30 104 -3 18 17 22
32 22 76 0 48 -4 59 -29 85 -39 38 -82 39 -111 2z"/>
<path d="M3217 352 c-41 -45 -6 -82 79 -82 65 0 104 19 104 50 0 32 -39 50
-106 50 -46 0 -65 -4 -77 -18z"/>
<path d="M9370 782 c-30 -24 -38 -95 -16 -137 23 -42 55 -59 95 -50 67 15 79
118 21 177 -33 32 -68 36 -100 10z"/>
<path d="M9362 358 c-20 -20 -14 -66 10 -79 30 -16 136 -12 154 5 17 18 18 58
2 74 -16 16 -150 16 -166 0z"/>
<path d="M4462 778 c-23 -26 -42 -69 -42 -99 0 -18 6 -20 93 -17 l92 3 3 36
c7 81 -93 133 -146 77z"/>
<path d="M4942 787 c-31 -17 -49 -46 -57 -90 l-7 -37 102 0 102 0 -7 37 c-17
91 -68 125 -133 90z"/>
<path d="M6475 775 c-58 -57 -12 -184 67 -185 66 0 94 118 42 179 -33 39 -74
41 -109 6z"/>
<path d="M6466 348 c-36 -50 -5 -78 87 -78 69 0 97 14 97 49 0 35 -33 51 -103
51 -57 0 -68 -3 -81 -22z"/>
<path d="M7922 770 c-36 -35 -57 -113 -49 -175 11 -79 36 -125 86 -156 53 -34
79 -36 115 -8 42 33 56 71 56 151 -1 108 -40 179 -113 207 -44 17 -63 13 -95
-19z"/>
<path d="M8942 787 c-30 -17 -48 -45 -56 -88 l-6 -37 101 -1 101 -2 -7 43 c-9
52 -22 73 -52 87 -31 14 -52 13 -81 -2z"/>
<path d="M9869 790 c-24 -14 -47 -52 -54 -92 l-7 -36 101 -1 c111 -2 109 -4
91 61 -18 62 -83 96 -131 68z"/>
</g>
</svg>
